{"glyphs":{":":{"x_min":0,"x_max":292,"ha":292,"o":"m 98 174 b 56 174 1 121 -2 79 b -5 51 32 28 65 28 b 111 28 145 88 148 121 b 151 154 129 174 98 174 z m 217 491 b 175 491 120 438 116 396 b 114 369 151 345 184 345 b 229 345 264 405 267 439 b 270 471 248 491 217 491 z"},"$":{"x_min":0,"x_max":593,"ha":593,"o":"m 480 762 b 490 785 495 799 495 801 b 495 828 437 876 437 834 b 437 830 429 808 415 773 b 299 767 115 603 115 455 b 115 380 166 340 219 310 b 196 257 174 206 156 163 b 100 168 52 188 52 228 b 52 272 77 278 77 291 b 77 318 -3 281 -3 198 b -3 151 46 99 120 79 b 110 55 103 39 102 35 b 90 1 130 -34 140 -8 b 144 1 156 30 174 70 b 178 70 182 70 187 70 b 306 70 399 112 399 211 b 399 279 340 301 294 339 b 356 478 422 626 461 716 b 471 713 477 705 477 692 b 477 599 399 470 369 470 b 341 470 374 416 426 416 b 487 416 566 568 566 641 b 566 679 538 737 480 762 z m 240 449 b 240 523 311 626 377 680 b 342 597 296 491 253 389 b 245 405 240 425 240 449 z m 330 220 b 330 190 276 169 215 164 b 232 201 250 241 269 283 b 304 265 330 247 330 220 z"},"?":{"x_min":0,"x_max":543,"ha":543,"o":"m 169 138 b 128 138 72 85 69 44 b 66 16 103 -7 137 -7 b 182 -7 216 52 219 86 b 222 119 200 138 169 138 z m 104 418 b 104 434 85 433 85 487 b 85 591 181 775 346 775 b 391 775 430 730 430 688 b 430 493 131 322 131 249 b 131 212 163 178 188 178 b 195 178 201 182 205 192 b 247 292 536 489 536 669 b 536 767 470 818 345 818 b 72 818 -9 621 -9 555 b -9 404 104 385 104 418 z"},"<":{"x_min":0,"x_max":381,"ha":381,"o":"m 9 327 b 11 319 16 314 24 313 b 43 304 193 171 203 154 b 214 135 230 133 241 138 b 257 145 269 170 261 193 b 252 219 176 299 128 338 l 344 459 b 356 466 365 477 371 494 b 377 510 379 523 376 534 b 373 541 370 545 365 547 b 363 548 361 548 359 548 b 356 548 353 548 349 546 b 346 544 323 531 280 506 l 237 481 b 215 469 200 460 190 454 l 186 452 b 153 434 121 416 92 400 b 67 387 41 371 33 366 l 30 364 b 11 354 6 338 9 327 z"},"'":{"x_min":0,"x_max":357,"ha":357,"o":"m 166 781 b 166 720 136 654 136 611 b 136 558 165 536 191 536 b 207 536 225 542 225 562 b 225 634 282 684 282 721 b 282 763 166 830 166 781 z"},"=":{"x_min":0,"x_max":530,"ha":530,"o":"m 403 447 b 255 422 110 444 69 428 b 34 414 31 381 35 364 b 38 353 49 355 60 360 b 92 372 355 349 379 356 b 403 362 432 452 403 447 z m 369 285 b 220 260 76 291 35 275 b 0 261 -4 228 1 210 b 4 200 15 202 26 206 b 58 219 321 187 345 194 b 369 200 397 290 369 285 z"},"a":{"x_min":0,"x_max":561,"ha":561,"o":"m 561 340 b 496 245 359 55 316 55 b 307 55 306 65 311 81 b 343 174 427 382 429 416 b 433 456 325 522 321 474 b 320 465 312 442 299 412 b 269 450 216 500 145 500 b 67 500 -79 201 -86 125 b -92 50 4 0 58 0 b 82 0 132 55 179 115 b 175 101 173 90 172 81 b 166 10 270 -1 290 -1 b 293 -1 295 -1 296 -1 b 388 10 542 242 581 304 b 587 313 583 372 561 340 z m 60 61 b 16 61 167 399 224 399 b 250 399 271 391 287 383 b 281 367 273 350 266 332 b 222 261 96 61 60 61 z"},"L":{"x_min":0,"x_max":537,"ha":537,"o":"m 668 -48 b 638 -48 653 -88 554 -88 b 435 -88 308 60 143 99 b 278 239 350 775 517 775 b 566 775 457 617 457 528 b 457 439 536 417 536 441 b 536 496 596 696 596 734 b 596 816 567 858 495 858 b 177 858 183 401 9 125 b 9 125 -135 142 -135 61 b -135 19 -96 -4 -50 -7 b -50 -7 -50 -7 -50 -7 b -17 -9 19 1 47 21 b 169 21 412 -147 536 -147 b 684 -147 695 -48 668 -48 z"},"3":{"x_min":0,"x_max":622,"ha":622,"o":"m 616 646 b 616 745 550 818 425 818 b 242 818 155 712 155 642 b 155 548 264 527 264 550 b 264 560 250 560 250 596 b 250 666 315 775 426 775 b 481 775 514 724 514 664 b 514 559 364 442 248 442 b 246 442 245 441 244 441 b 194 440 162 412 162 360 b 162 306 208 341 290 341 b 336 341 364 322 364 262 b 364 202 288 99 151 99 b 72 99 -3 123 -3 179 b -3 231 27 239 27 254 b 27 287 -70 242 -70 142 b -70 69 28 -14 160 -14 b 326 -14 479 104 479 239 b 479 306 432 356 380 390 b 509 444 616 547 616 646 z m 425 818 b 425 818 425 818 425 818 b 425 818 425 818 425 818 l 425 818 z"},";":{"x_min":0,"x_max":240,"ha":240,"o":"m 159 464 b 118 464 62 411 59 369 b 56 342 93 318 127 318 b 172 318 206 378 209 412 b 212 444 190 464 159 464 z m 32 149 b 6 149 12 51 -63 -24 b -81 -42 -84 -65 -38 -65 b 23 -65 105 53 105 82 b 105 112 71 149 32 149 z"},"J":{"x_min":0,"x_max":725,"ha":725,"o":"m 578 748 b 578 473 224 -152 84 -152 b 30 -152 31 -108 31 -88 b 31 -30 76 22 45 22 b 18 22 -38 -3 -38 -69 b -38 -165 27 -214 97 -214 b 408 -214 709 422 709 707 b 709 807 642 858 516 858 b 240 858 -7 609 -7 498 b -7 356 108 298 108 332 b 108 348 88 347 88 402 b 88 589 350 815 517 815 b 562 815 578 775 578 748 z"},"V":{"x_min":0,"x_max":787,"ha":787,"o":"m 202 -5 b 442 -5 836 617 836 754 b 836 810 754 878 754 831 b 754 780 472 150 259 81 b 231 81 232 107 232 107 b 232 199 430 608 430 694 b 430 793 352 860 226 860 b -50 860 -297 611 -297 500 b -297 358 -182 300 -182 334 b -182 350 -202 349 -202 404 b -202 590 60 817 227 817 b 273 817 289 777 289 750 b 289 555 85 223 85 151 b 85 71 133 -5 202 -5 z"},"\"":{"x_min":0,"x_max":515,"ha":515,"o":"m 166 781 b 166 720 136 654 136 611 b 136 558 165 536 191 536 b 207 536 225 542 225 562 b 225 634 282 684 282 721 b 282 763 166 830 166 781 z m 334 781 b 334 720 304 654 304 611 b 304 558 333 536 359 536 b 374 536 392 542 392 562 b 392 634 449 684 449 721 b 449 763 334 830 334 781 z"},"7":{"x_min":0,"x_max":567,"ha":567,"o":"m 573 823 b 571 826 569 827 566 826 b 551 831 537 829 530 818 b 382 786 169 812 128 795 b 90 780 87 738 92 720 b 95 708 106 710 118 715 b 145 726 353 718 451 719 b 335 493 6 77 -4 49 b -16 16 70 -31 89 -31 b 109 -31 122 0 128 18 b 155 94 610 734 617 752 b 627 779 600 811 573 823 z"},"S":{"x_min":0,"x_max":512,"ha":512,"o":"m -84 190 b -84 243 -54 251 -54 266 b -54 299 -152 254 -152 152 b -152 79 -53 -5 81 -5 b 228 -5 341 47 341 169 b 341 306 167 288 167 460 b 167 589 321 789 405 789 b 424 789 437 778 437 757 b 437 643 341 485 304 485 b 270 485 310 419 374 419 b 449 419 545 606 545 695 b 545 755 488 858 369 858 b 228 858 14 652 14 467 b 14 280 257 272 257 180 b 257 97 -84 70 -84 190 z"},"}":{"x_min":0,"x_max":507,"ha":507,"o":"m 21 -46 b 114 -46 225 254 251 309 b 277 356 321 355 321 378 b 321 406 303 407 303 424 b 303 484 455 739 455 798 b 455 839 413 875 375 875 b 336 875 369 855 369 818 b 369 780 229 523 229 491 b 229 459 245 431 245 417 b 245 379 181 403 154 346 b 127 290 34 0 -9 0 b -46 0 -26 -46 21 -46 z"},"Z":{"x_min":0,"x_max":667,"ha":667,"o":"m 604 861 b 487 861 336 798 229 798 b 122 798 118 831 118 792 b 118 773 129 691 209 691 b 290 691 437 748 553 748 b 571 748 585 747 597 744 b 447 595 -25 122 -25 89 b -25 49 25 -18 48 -18 b 50 -18 52 -17 54 -16 b 151 -2 263 14 341 14 b 473 14 463 -41 480 -41 b 497 -41 545 -3 545 41 b 545 85 529 127 397 127 b 322 127 286 124 183 106 b 374 358 639 634 707 713 b 721 729 734 750 734 774 b 734 818 721 861 604 861 z"},"x":{"x_min":0,"x_max":545,"ha":545,"o":"m 602 341 b 536 246 399 56 357 56 b 297 56 276 160 254 267 b 345 347 432 418 434 445 b 438 492 371 532 368 490 b 366 472 307 417 235 353 b 214 433 184 498 125 498 b 88 498 27 400 -8 346 b -23 323 1 291 10 307 b 20 323 72 400 72 400 b 72 400 90 427 99 391 b 105 354 115 307 129 258 b 50 186 -18 119 -20 91 b -25 44 40 -38 44 14 b 48 58 95 117 155 176 b 192 82 247 0 331 0 b 422 0 581 241 622 304 b 628 314 624 373 602 341 z"},")":{"x_min":0,"x_max":390,"ha":390,"o":"m -71 19 b -109 19 -81 -73 6 -73 b 155 -73 458 341 458 676 b 458 881 329 895 329 866 b 329 834 362 840 362 738 b 362 300 15 19 -71 19 z"},"&":{"x_min":0,"x_max":646,"ha":646,"o":"m 424 255 b 420 255 417 254 414 251 b 412 248 411 245 411 241 b 411 211 380 90 238 90 b 205 90 179 99 161 115 b 146 129 138 149 138 173 b 138 239 207 334 331 334 b 339 334 340 332 342 330 b 344 327 348 322 357 322 b 374 322 395 348 395 378 b 395 407 374 438 318 438 b 293 438 281 436 274 434 b 251 446 226 466 226 500 b 226 561 303 654 404 654 b 422 654 437 645 449 635 b 433 597 419 560 419 534 b 419 502 454 482 474 482 b 479 482 483 483 486 486 b 491 489 493 493 493 499 b 493 539 525 602 549 648 b 566 682 574 699 574 708 b 574 734 530 763 507 763 b 501 763 497 762 493 759 b 490 756 487 752 487 744 b 487 738 485 730 482 720 b 464 749 433 763 392 763 b 292 763 133 653 133 522 b 133 473 153 433 192 404 b 72 344 25 235 42 156 b 59 75 133 27 239 27 b 392 27 458 149 458 211 b 458 232 438 255 424 255 z m 539 478 b 524 478 514 469 514 454 b 514 378 455 349 393 318 b 336 289 276 260 276 189 b 276 168 296 153 313 153 b 319 153 324 155 328 158 b 332 161 334 167 334 173 b 334 219 387 242 448 269 b 522 301 607 338 607 429 b 607 453 563 478 539 478 z"},"_":{"x_min":0,"x_max":721,"ha":721,"o":"m 29 -88 b 29 -100 34 -106 42 -106 b 48 -106 203 -104 340 -104 b 493 -104 595 -105 597 -105 b 622 -105 653 -82 653 -45 b 653 -27 638 -23 629 -23 b 618 -23 545 -29 454 -29 b 325 -29 85 -25 85 -25 b 45 -25 29 -75 29 -88 z"},"v":{"x_min":0,"x_max":425,"ha":425,"o":"m 20 -9 b 22 -8 23 -8 24 -8 b 156 23 426 381 436 505 b 439 539 387 597 381 528 b 375 458 172 106 90 106 b 72 106 69 122 75 146 b 113 256 167 402 169 428 b 172 469 33 552 29 505 b 7 259 -83 157 -90 86 b -96 11 -30 -10 7 -10 b 7 -10 7 -10 7 -10 b 9 -10 10 -10 12 -10 b 14 -9 15 -9 16 -9 b 18 -9 19 -9 20 -9 z"},"O":{"x_min":0,"x_max":686,"ha":686,"o":"m 479 859 b 381 859 289 778 222 678 b 218 681 213 682 209 682 b 140 682 2 547 -18 300 b -30 162 35 -7 189 -7 b 400 -7 631 293 660 619 b 670 741 583 859 479 859 z m 182 80 b 129 80 99 138 107 238 b 110 262 116 287 125 312 b 158 268 236 271 218 292 b 175 338 381 798 484 798 b 519 798 549 756 541 668 b 520 433 334 80 182 80 z"},"(":{"x_min":0,"x_max":390,"ha":390,"o":"m 558 785 b 595 785 567 877 481 877 b 331 877 28 463 28 128 b 28 -77 157 -91 157 -62 b 157 -30 124 -36 124 66 b 124 504 472 785 558 785 z"},"C":{"x_min":0,"x_max":577,"ha":577,"o":"m 580 734 b 584 817 556 859 484 859 b 179 859 -316 -7 243 -7 b 430 -7 623 215 627 290 b 628 317 595 344 594 326 b 593 287 430 59 245 59 b -31 59 318 776 503 776 b 552 776 436 618 432 528 b 428 440 506 418 507 442 b 509 496 578 697 580 734 z"},"W":{"x_min":0,"x_max":1041,"ha":1041,"o":"m 1037 831 b 1037 780 747 44 590 44 b 562 44 563 69 563 69 b 563 161 729 500 729 586 b 729 630 599 675 599 627 b 599 593 594 559 586 526 b 549 441 378 68 283 68 b 255 68 256 94 256 94 b 256 186 484 603 484 689 b 484 789 398 860 272 860 b -5 860 -251 611 -251 500 b -251 358 -137 300 -137 334 b -137 350 -157 349 -157 404 b -157 590 106 817 272 817 b 318 817 334 777 334 750 b 334 555 130 223 130 151 b 130 71 205 -5 296 -5 b 338 -5 395 67 444 146 b 446 68 494 -5 561 -5 b 826 -5 1131 600 1131 736 b 1131 793 1037 878 1037 831 z"},"A":{"x_min":0,"x_max":708,"ha":708,"o":"m 591 386 b 652 572 721 754 724 776 b 731 818 612 912 605 863 b 604 861 604 858 604 856 b 549 790 403 570 242 380 b 171 368 103 357 55 356 b -47 356 -46 393 -52 351 b -56 334 -47 271 29 271 b 58 271 105 278 157 285 b 45 165 -65 74 -151 74 b -177 74 -196 91 -200 72 b -202 53 -179 10 -88 10 b 6 10 147 145 278 302 b 331 308 382 313 423 314 b 429 314 434 314 439 314 b 400 208 368 124 365 96 b 352 14 417 0 443 0 b 481 0 504 15 502 27 b 500 34 500 55 503 67 b 511 120 530 189 552 264 b 570 270 603 300 608 333 b 612 352 610 372 591 386 z m 473 412 b 440 411 399 406 357 399 b 440 509 515 618 566 695 b 539 603 506 503 473 412 z"},"f":{"x_min":0,"x_max":392,"ha":392,"o":"m 393 341 b 339 263 254 166 174 135 b 182 165 188 191 189 209 b 196 282 192 346 156 372 b 221 550 280 709 281 727 b 285 768 145 852 141 804 b 119 558 -148 -6 -154 -77 b -163 -173 -108 -223 -21 -223 b 40 -223 116 -55 157 77 b 279 112 368 246 412 305 b 419 314 415 372 393 341 z m 118 188 b 117 173 112 151 106 126 b 90 130 79 138 72 147 b 85 181 98 217 111 253 b 125 244 119 205 118 188 z m -19 -164 b -27 -164 -28 -149 -28 -142 b -26 -126 7 -32 51 89 b 61 80 74 74 90 70 b 58 -36 5 -164 -19 -164 z"},"Q":{"x_min":0,"x_max":713,"ha":713,"o":"m 685 -79 b 669 -79 669 -99 613 -99 b 520 -99 426 -43 356 40 b 513 142 647 349 663 606 b 671 728 587 860 483 860 b 384 860 299 776 237 674 b 231 679 225 682 218 682 b 149 682 1 577 -15 300 b -24 163 60 -7 214 -7 b 229 -7 244 -5 259 -2 b 343 -121 451 -195 510 -195 b 654 -195 719 -79 685 -79 z m 205 81 b 152 81 121 139 127 239 b 129 270 134 298 140 325 b 146 235 172 153 209 81 b 208 81 206 81 205 81 z m 298 127 b 262 197 242 276 247 354 b 259 537 364 798 490 798 b 525 798 555 757 550 669 b 537 457 423 243 298 127 z"},"w":{"x_min":0,"x_max":705,"ha":705,"o":"m 306 -7 b 308 -6 309 -6 310 -6 b 442 25 712 383 722 507 b 725 541 673 599 667 530 b 661 460 458 108 376 108 b 360 108 356 120 359 140 b 390 224 429 327 431 352 b 434 386 337 450 303 442 b 303 442 303 442 302 442 b 277 442 151 263 81 162 b 119 270 169 405 171 430 b 174 471 35 554 31 507 b 9 261 -81 159 -88 88 b -96 -10 19 -16 33 -3 b 45 8 35 6 37 25 b 37 26 37 27 37 28 b 81 89 187 220 278 333 b 251 175 202 149 196 88 b 190 13 256 -8 293 -8 b 293 -8 293 -8 293 -8 b 295 -8 296 -8 298 -8 b 300 -8 301 -7 302 -7 b 304 -7 305 -7 306 -7 z"},"-":{"x_min":0,"x_max":548,"ha":548,"o":"m 437 364 b 288 339 144 361 103 345 b 68 331 64 288 69 271 b 72 261 83 263 94 267 b 126 279 389 256 413 263 b 437 270 465 369 437 364 z"},"E":{"x_min":0,"x_max":583,"ha":583,"o":"m 584 328 b 582 289 431 46 213 46 b 30 46 102 373 423 373 b 449 373 441 360 453 360 b 466 360 489 384 490 415 b 492 447 471 476 412 476 b 361 476 316 470 273 460 b 237 478 232 523 233 552 b 237 632 340 748 469 748 b 598 748 453 560 411 560 b 395 560 404 529 425 529 b 492 529 576 629 581 743 b 584 814 513 858 432 858 b 320 858 126 732 119 578 b 117 515 144 467 196 434 b -73 317 -90 -7 212 -7 b 441 -7 614 216 617 292 b 618 320 585 347 584 328 z"},"s":{"x_min":0,"x_max":349,"ha":349,"o":"m 351 341 b 323 299 271 266 215 235 b 191 300 139 364 103 427 b 139 491 173 565 178 629 b 185 701 161 728 132 728 b 78 728 -40 651 -49 547 b -56 469 -22 410 15 354 b 10 346 4 339 0 333 b -9 321 13 288 22 300 b 26 306 32 314 38 322 b 68 277 93 230 97 173 b 28 136 -29 99 -33 50 b -36 16 -1 -29 30 -29 b 125 -29 222 76 229 155 b 230 171 229 187 225 202 b 289 236 349 272 374 313 b 380 322 372 373 351 341 z m 66 551 b 71 601 104 685 128 685 b 143 685 150 673 146 631 b 142 581 115 519 84 464 b 71 493 64 522 66 551 z m 30 30 b 23 30 18 39 19 48 b 21 78 52 105 95 132 b 90 94 67 30 30 30 z"},">":{"x_min":0,"x_max":403,"ha":403,"o":"m 371 360 b 369 367 363 373 356 373 b 337 382 186 515 176 532 b 165 551 149 553 138 548 b 122 541 110 517 118 493 b 128 467 204 387 252 348 l 36 227 b 23 220 14 209 8 192 b 2 177 1 163 4 152 b 6 145 10 141 15 139 b 16 138 18 138 20 138 b 23 138 26 138 30 141 b 34 142 56 155 99 180 l 143 205 b 164 217 179 226 189 232 l 193 234 b 227 253 258 270 287 286 b 313 300 338 315 347 320 l 349 322 b 368 332 373 348 371 360 z"},"l":{"x_min":0,"x_max":291,"ha":291,"o":"m 292 338 b 227 243 104 62 62 62 b 54 62 52 70 54 82 b 104 232 272 692 275 727 b 279 768 139 852 135 804 b 114 557 -70 178 -76 107 b -83 27 -18 -1 7 -1 b 134 -1 272 238 312 301 b 318 311 314 370 292 338 z"},"8":{"x_min":0,"x_max":690,"ha":690,"o":"m 389 406 b 534 492 672 573 672 683 b 672 785 605 839 475 839 b 208 839 114 638 114 569 b 114 501 134 471 151 451 b 175 423 200 414 215 414 b 229 414 238 420 238 431 b 238 438 234 443 231 447 b 226 455 217 466 217 501 b 217 598 309 786 476 786 b 520 786 556 740 556 702 b 556 611 422 527 282 440 b 133 347 -21 250 -21 137 b -21 35 47 -18 177 -18 b 471 -18 538 170 538 235 b 538 305 518 346 501 368 b 479 398 454 408 438 408 b 423 408 414 401 414 390 b 414 384 417 375 420 366 b 426 349 435 325 435 291 b 435 184 336 34 176 34 b 131 34 95 80 95 118 b 95 234 244 321 389 406 z"},"\\":{"x_min":0,"x_max":370,"ha":370,"o":"m 256 43 b 254 73 116 741 137 819 b 149 861 60 814 47 763 b 38 730 169 25 175 -31 b 179 -58 258 8 256 43 z"},"e":{"x_min":0,"x_max":442,"ha":442,"o":"m 441 345 b 367 259 200 54 76 54 b 38 54 45 113 72 184 b 89 178 110 174 136 174 b 226 174 322 295 327 351 b 331 408 266 499 190 499 b 101 499 -53 311 -69 131 b -73 82 17 -1 84 -1 b 222 -1 418 255 462 316 b 467 323 460 368 441 345 z m 231 425 b 271 425 212 290 108 266 b 150 349 203 425 231 425 z"},"b":{"x_min":0,"x_max":525,"ha":525,"o":"m 524 340 b 483 282 382 170 288 91 b 354 187 403 307 408 365 b 414 439 384 499 289 499 b 251 499 185 412 133 333 b 199 512 276 718 278 741 b 281 782 173 847 169 799 b 159 687 -84 172 -90 101 b -96 37 -9 21 21 19 b 30 -7 60 -48 113 -48 b 266 -48 491 237 542 305 b 549 314 545 372 524 340 z m 36 43 b 36 47 35 53 36 60 b 37 67 48 100 65 149 b 118 240 239 437 302 437 b 341 437 164 70 36 43 z"},"%":{"x_min":0,"x_max":631,"ha":631,"o":"m 494 892 b 494 887 476 839 446 767 b 414 703 368 643 313 624 b 323 654 328 687 324 715 b 318 771 255 831 188 831 b 115 831 21 690 31 609 b 40 530 114 495 146 495 b 196 495 237 516 266 547 b 303 553 339 570 372 593 b 264 338 120 7 113 -15 b 99 -54 145 -94 156 -63 b 181 0 561 834 561 856 b 561 887 494 940 494 892 z m 118 543 b 110 543 107 556 106 564 b 99 617 185 754 228 754 b 238 754 240 743 243 726 b 244 712 243 695 239 679 b 198 666 170 612 186 575 b 165 556 143 543 118 543 z m 610 206 b 603 262 540 322 474 322 b 401 322 306 181 316 100 b 327 21 401 -15 431 -15 b 554 -15 621 112 610 206 z m 404 34 b 395 34 393 47 391 55 b 385 108 470 245 513 245 b 523 245 526 234 528 217 b 537 145 477 34 404 34 z"},"m":{"x_min":0,"x_max":752,"ha":752,"o":"m 754 341 b 689 246 561 46 518 46 b 510 46 508 54 512 68 b 545 165 639 396 642 430 b 644 461 585 505 552 506 b 552 506 551 506 550 506 b 549 506 547 506 546 505 b 541 504 538 502 536 498 b 487 456 353 262 303 188 b 337 276 386 398 388 426 b 391 466 283 532 279 484 b 279 484 279 483 279 483 b 234 429 120 259 76 191 b 114 289 158 401 160 424 b 163 465 55 531 51 483 b 44 403 -90 161 -96 90 b -102 19 1 -17 16 -2 b 23 4 21 10 20 20 b 59 92 176 263 237 350 b 206 274 168 191 165 149 b 158 78 252 42 268 56 b 273 61 273 67 273 74 b 300 118 392 229 484 343 b 442 242 388 126 384 81 b 378 14 470 -21 492 -13 b 585 4 735 243 774 304 b 780 314 776 372 754 341 z"},"#":{"x_min":0,"x_max":710,"ha":710,"o":"m 632 525 b 587 514 533 508 476 506 b 501 573 519 625 520 635 b 522 667 438 732 435 695 b 430 639 414 572 393 504 b 359 504 326 504 293 505 b 318 573 336 625 337 635 b 339 667 255 732 252 695 b 247 640 231 574 211 508 b 137 510 79 511 60 505 b 14 490 10 454 16 435 b 20 424 33 426 48 431 b 60 435 116 436 188 434 b 177 401 165 368 154 337 b 82 339 27 340 8 334 b -37 319 -41 283 -35 264 b -31 253 -18 255 -4 260 b 8 264 60 264 127 263 b 104 199 87 150 87 131 b 87 82 120 67 139 67 b 151 67 154 81 154 96 b 154 111 176 179 205 262 b 239 261 274 260 309 259 b 286 197 270 149 270 131 b 270 82 303 67 322 67 b 334 67 336 81 336 96 b 336 111 358 176 386 256 b 472 254 540 252 551 254 b 582 262 617 362 581 354 b 533 342 475 337 414 334 b 425 365 437 397 448 427 b 529 424 592 423 603 426 b 633 433 668 534 632 525 z m 336 333 b 300 333 265 333 231 334 b 243 367 255 400 267 432 b 301 431 335 430 369 429 b 358 396 347 364 336 333 z"},",":{"x_min":0,"x_max":319,"ha":319,"o":"m 79 52 b 56 52 61 -33 -4 -98 b -19 -113 -22 -134 18 -134 b 71 -134 143 -31 143 -6 b 143 20 112 52 79 52 z"},"n":{"x_min":0,"x_max":564,"ha":564,"o":"m 571 338 b 505 243 372 48 329 48 b 321 48 319 56 323 70 b 356 167 450 398 453 432 b 455 461 404 501 371 507 b 369 508 366 508 363 508 b 361 508 360 508 358 507 b 355 506 352 505 350 503 b 292 471 138 271 82 196 b 120 293 163 401 165 425 b 169 465 60 531 56 483 b 49 403 -84 167 -90 96 b -96 25 6 -11 22 3 b 31 11 25 21 26 38 b 53 97 239 307 313 388 b 270 280 199 134 195 83 b 189 16 281 -19 303 -11 b 396 5 552 241 591 302 b 597 311 593 370 571 338 z"},"h":{"x_min":0,"x_max":593,"ha":593,"o":"m 597 340 b 532 245 379 52 336 52 b 301 52 424 326 428 379 b 433 432 406 498 330 498 b 277 498 168 333 105 231 b 174 426 273 700 275 727 b 279 768 139 852 135 804 b 113 558 -79 151 -86 79 b -94 -20 23 -3 37 10 b 49 21 39 18 41 38 b 41 42 46 59 54 83 b 128 180 256 384 274 384 b 297 384 181 198 174 114 b 166 29 267 -11 303 -11 b 394 -11 577 240 617 303 b 623 313 619 371 597 340 z"},"z":{"x_min":0,"x_max":564,"ha":564,"o":"m 570 340 b 504 245 365 74 273 74 b 233 74 188 89 138 101 b 231 193 433 353 455 408 b 467 418 462 494 388 494 b 309 494 284 470 148 470 b 89 470 74 503 66 503 b 60 503 54 491 52 475 b 51 474 50 473 50 470 b 46 425 18 380 -22 322 b -40 299 -18 263 -8 278 b 5 296 58 373 58 373 b 58 373 66 389 77 403 b 94 388 121 376 162 376 b 204 376 285 404 343 420 b 342 419 341 418 340 417 b 233 296 80 193 7 109 b -53 87 -63 5 -47 5 b -21 5 -27 29 49 29 b 126 29 143 -4 217 -4 b 370 -4 537 236 588 304 b 595 313 592 371 570 340 z"},"B":{"x_min":0,"x_max":616,"ha":616,"o":"m 409 850 b 400 850 390 850 380 849 b 347 880 308 900 308 869 b 308 860 307 850 305 839 b 74 789 -113 587 -113 490 b -113 348 1 290 1 324 b 1 340 -19 339 -19 394 b -19 531 137 688 286 763 b 260 676 212 562 164 452 b 159 452 153 453 148 453 b 129 453 123 414 136 387 b 74 246 19 126 19 101 b 19 70 89 29 117 22 b 158 5 210 -8 268 -8 b 393 -8 521 88 521 227 b 521 325 476 378 417 405 b 732 523 789 850 409 850 z m 431 261 b 431 194 350 77 206 77 b 189 77 173 78 159 80 b 168 123 216 240 268 366 b 279 369 290 371 301 373 b 304 374 308 374 312 375 b 321 376 329 377 337 377 b 405 377 431 327 431 261 z m 301 446 b 364 597 423 742 423 775 b 424 784 421 794 416 804 b 423 805 431 805 438 805 b 629 805 592 470 301 446 z"},"K":{"x_min":0,"x_max":534,"ha":534,"o":"m 675 -48 b 659 -48 660 -68 605 -68 b 461 -68 314 148 246 303 b 474 346 725 626 725 752 b 725 809 643 876 643 829 b 643 783 466 501 271 399 b 325 538 374 667 374 706 b 374 806 298 858 171 858 b -105 858 -351 609 -351 498 b -351 356 -237 298 -237 332 b -237 348 -257 347 -257 402 b -257 589 6 815 172 815 b 218 815 234 775 234 748 b 234 661 186 527 133 399 l 132 400 b 99 403 92 373 111 347 b 53 212 -3 93 -3 57 b -3 -9 133 -35 133 0 b 133 32 163 118 202 219 b 274 27 423 -162 509 -162 b 651 -162 709 -48 675 -48 z"},"R":{"x_min":0,"x_max":585,"ha":585,"o":"m 638 -90 b 422 -90 347 306 316 387 b 716 442 868 872 428 872 b 157 872 -99 627 -99 509 b -99 384 -21 332 5 332 b 31 332 -4 354 -4 423 b -4 508 94 647 215 739 b 171 489 -1 148 -1 80 b -1 14 127 -11 127 23 b 127 61 166 176 213 303 b 269 172 338 -153 593 -153 b 659 -153 709 -102 709 -81 b 709 -42 669 -90 638 -90 z m 301 793 b 348 817 395 832 439 832 b 639 832 616 468 267 447 b 319 583 366 703 368 721 b 370 742 336 773 301 793 z"},"T":{"x_min":0,"x_max":367,"ha":367,"o":"m 511 858 b 379 858 150 796 29 796 b -93 796 -96 839 -96 789 b -96 770 -74 697 17 697 b 59 697 131 708 208 719 b 170 482 2 150 2 85 b 2 23 126 -28 126 4 b 126 109 353 638 356 678 b 358 690 338 719 320 734 b 373 740 423 745 464 745 b 596 745 591 690 608 690 b 625 690 666 728 666 771 b 666 815 643 858 511 858 z"},"P":{"x_min":0,"x_max":621,"ha":621,"o":"m 424 856 b 357 856 290 840 228 816 b 228 816 228 816 228 816 b 44 742 -98 584 -98 496 b -98 373 -21 321 5 321 b 31 321 -4 342 -4 411 b -4 494 91 630 209 721 b 160 476 -1 155 -1 90 b -1 24 126 -23 126 11 b 126 67 186 214 237 365 b 238 364 239 364 240 364 b 698 364 890 856 424 856 z m 260 430 b 309 573 355 701 355 720 b 355 736 326 763 305 782 b 349 803 393 816 435 816 b 636 816 621 439 260 430 z"},"|":{"x_min":0,"x_max":536,"ha":536,"o":"m 246 834 b 246 649 188 24 185 -10 b 182 -45 222 -92 242 -92 b 262 -92 267 -61 268 -42 b 276 36 304 757 305 775 b 309 826 246 888 246 834 z"},"t":{"x_min":0,"x_max":303,"ha":303,"o":"m 353 639 b 311 639 281 636 248 632 b 266 683 277 720 278 729 b 282 770 142 853 138 805 b 133 749 119 685 101 618 b 81 618 60 617 35 617 b -43 617 -65 647 -76 647 b -102 647 -81 533 -4 533 b 15 533 44 536 77 540 b 13 337 -78 132 -83 83 b -89 12 15 0 35 0 b 38 0 40 1 42 1 b 133 11 287 243 327 305 b 333 315 329 373 307 342 b 241 247 104 56 62 56 b 52 56 51 66 56 84 l 56 84 b 87 178 169 405 224 563 b 286 573 341 581 363 581 b 430 581 422 560 441 560 b 462 560 459 639 353 639 z"},"M":{"x_min":0,"x_max":901,"ha":901,"o":"m 711 79 b 736 285 904 680 908 716 b 914 757 786 868 780 819 b 779 810 777 801 776 791 b 688 634 561 436 475 304 b 477 313 479 318 480 320 b 490 405 604 724 609 760 b 612 789 549 851 508 870 b 505 874 500 876 493 876 b 492 876 492 876 491 875 b 482 877 476 873 475 864 b 474 861 474 858 474 856 b 378 733 -21 76 -252 76 b -278 76 -298 93 -300 74 b -303 56 -277 13 -187 13 b -4 13 311 481 442 695 b 382 451 271 155 264 97 b 254 16 321 0 346 0 b 385 0 399 19 395 31 b 421 134 653 479 725 585 b 663 379 570 171 564 119 b 554 38 636 7 662 7 b 701 7 715 26 711 38 b 709 46 709 66 711 79 z"},"g":{"x_min":0,"x_max":543,"ha":543,"o":"m 544 339 b 521 307 373 113 284 16 b 365 215 421 402 423 421 b 426 462 318 527 314 480 b 313 469 308 448 299 418 b 269 456 216 506 145 506 b 66 506 -72 197 -79 121 b -85 46 11 -4 65 -4 b 93 -4 155 74 206 147 b 168 47 124 -60 80 -153 b -47 -246 -151 -318 -156 -370 b -159 -408 -141 -473 -57 -473 b 43 -473 154 -282 245 -77 b 248 -75 250 -73 253 -71 b 337 -2 549 280 564 303 b 570 312 566 371 544 339 z m 67 57 b 23 57 167 406 223 406 b 251 406 274 397 290 387 b 287 377 283 367 280 356 b 245 295 105 57 67 57 z m -95 -392 b -99 -392 -106 -391 -104 -371 b -101 -341 -43 -295 38 -235 b -12 -328 -60 -392 -95 -392 z"},"j":{"x_min":0,"x_max":273,"ha":273,"o":"m 136 551 b 194 551 238 627 242 670 b 245 712 218 737 178 737 b 125 737 54 669 50 616 b 47 581 94 551 136 551 z m 274 339 b 252 306 105 113 16 16 b 97 215 153 402 154 421 b 158 462 50 527 46 480 b 41 428 -74 87 -189 -153 b -315 -246 -419 -318 -424 -370 b -427 -408 -409 -473 -326 -473 b -226 -473 -114 -282 -23 -77 b -21 -75 -18 -73 -16 -71 b 68 -2 279 279 294 302 b 300 312 296 370 274 339 z m -363 -392 b -368 -392 -374 -391 -372 -371 b -370 -341 -311 -295 -230 -235 b -281 -328 -328 -392 -363 -392 z"},"i":{"x_min":0,"x_max":294,"ha":294,"o":"m 298 340 b 233 245 94 55 51 55 b 42 55 41 65 46 82 b 78 174 162 382 165 416 b 168 456 60 522 56 474 b 52 434 -87 152 -93 81 b -99 10 5 -1 25 -1 b 28 -1 30 -1 31 -1 b 123 10 275 242 314 304 b 320 313 320 372 298 340 z m 163 551 b 220 551 264 627 268 670 b 271 712 244 737 204 737 b 151 737 81 669 76 616 b 73 581 120 551 163 551 z"},"y":{"x_min":0,"x_max":551,"ha":551,"o":"m 555 341 b 533 308 388 122 300 28 b 381 227 437 415 439 434 b 443 475 334 541 330 493 b 329 477 317 436 299 378 b 245 251 88 56 25 56 b -8 56 155 385 158 426 b 162 466 54 532 50 484 b 43 404 -85 181 -91 110 b -97 39 -22 -4 10 -4 b 90 -4 179 107 231 184 b 191 78 144 -40 96 -140 b -30 -233 -135 -305 -139 -357 b -143 -395 -125 -460 -41 -460 b 59 -460 171 -269 261 -64 b 264 -62 266 -60 269 -58 b 353 12 560 281 575 304 b 581 314 577 372 555 341 z m -79 -379 b -83 -379 -89 -378 -88 -358 b -85 -328 -26 -282 54 -222 b 4 -315 -44 -379 -79 -379 z"},"@":{"x_min":0,"x_max":788,"ha":788,"o":"m 386 695 b 281 695 184 648 103 568 b 56 520 19 465 -9 403 b -36 342 -50 282 -50 223 b -50 143 -25 79 24 29 b 74 -19 137 -44 214 -44 b 291 -44 312 37 312 58 b 312 80 273 34 203 34 b 106 34 39 90 39 207 b 39 297 77 397 140 478 b 213 569 311 627 414 627 b 516 627 568 574 568 465 b 568 365 504 141 432 141 b 408 141 404 166 410 200 b 410 201 410 202 410 203 b 430 277 473 414 473 438 b 473 468 388 517 388 481 b 388 474 383 458 376 435 b 352 463 309 500 256 500 b 197 500 108 278 108 222 b 108 165 183 128 223 128 b 241 128 275 169 306 214 b 304 204 303 195 303 189 b 303 93 385 88 424 88 b 514 88 656 220 656 440 b 656 614 520 695 386 695 z m 221 174 b 188 174 279 426 321 426 b 340 426 357 420 369 413 b 365 402 361 389 356 376 b 328 323 248 174 221 174 z"},".":{"x_min":0,"x_max":306,"ha":306,"o":"m 72 -23 b 117 -23 151 36 154 70 b 157 103 135 122 104 122 b 63 122 7 69 4 28 b 1 0 38 -23 72 -23 z"},"p":{"x_min":0,"x_max":542,"ha":542,"o":"m 543 344 b 503 285 403 173 310 94 b 374 190 422 308 427 365 b 434 439 403 499 308 499 b 268 499 195 399 141 315 b 159 370 172 409 173 419 b 176 460 37 543 32 495 b 11 250 -180 -135 -186 -206 b -194 -304 -80 -310 -65 -297 b -53 -286 -63 -288 -62 -269 b -60 -254 -13 -121 39 25 b 45 -1 76 -48 133 -48 b 286 -48 511 240 562 308 b 569 317 565 375 543 344 z m 45 41 b 56 74 68 107 79 139 b 129 225 257 437 321 437 b 361 437 173 48 45 41 z"},"X":{"x_min":0,"x_max":634,"ha":634,"o":"m 678 -82 b 532 -82 441 89 387 284 b 540 462 688 662 688 733 b 688 789 591 878 591 831 b 591 805 486 612 354 426 b 334 527 332 860 132 860 b -81 860 -251 611 -251 500 b -251 358 -137 300 -137 334 b -137 350 -157 349 -157 404 b -157 590 13 817 133 817 b 225 817 217 435 257 297 b 153 169 46 68 -31 68 b -58 68 -72 86 -72 58 b -72 16 -41 -5 -8 -5 b 62 -5 179 63 293 180 b 364 -13 468 -146 596 -146 b 686 -146 724 -103 726 -84 b 729 -65 704 -82 678 -82 z"},"*":{"x_min":0,"x_max":468,"ha":468,"o":"m 445 713 b 443 715 441 717 435 717 b 435 717 407 716 369 715 b 394 747 414 771 415 776 b 420 804 415 819 403 819 b 394 819 397 817 393 814 b 381 800 343 759 313 726 b 291 768 270 802 259 805 b 243 808 237 796 232 786 l 229 778 b 229 775 229 769 232 765 b 239 753 245 740 251 725 l 250 726 b 252 722 254 717 257 712 b 221 710 183 707 177 702 b 154 685 158 670 162 661 b 165 658 170 656 177 656 b 188 657 215 656 247 655 b 220 625 200 602 199 596 b 195 571 205 547 218 547 b 219 547 225 550 228 552 b 228 552 260 587 295 628 b 311 593 325 566 329 564 b 353 558 377 569 380 580 l 379 579 b 381 584 379 587 379 591 b 379 591 365 619 348 654 b 371 653 390 653 406 653 b 424 653 435 653 439 657 l 438 657 b 460 675 452 704 446 712 z"},"Y":{"x_min":0,"x_max":804,"ha":804,"o":"m 690 788 b 690 768 681 720 665 653 b 615 563 335 68 273 68 b 255 68 260 105 260 105 b 260 197 470 623 470 709 b 470 809 388 860 262 860 b -15 860 -261 611 -261 500 b -261 358 -147 300 -147 334 b -147 350 -167 349 -167 404 b -167 590 96 817 263 817 b 308 817 324 777 324 750 b 324 555 120 223 120 151 b 120 71 195 -5 286 -5 b 356 -5 516 264 592 398 b 473 34 369 -219 109 -219 b 71 -219 34 -193 38 -221 b 42 -249 123 -313 257 -313 b 554 -313 801 594 801 678 b 801 750 690 837 690 788 z"},"c":{"x_min":0,"x_max":408,"ha":408,"o":"m 305 369 b 319 382 305 499 161 499 b 56 499 -73 218 -81 125 b -85 78 -35 -1 62 -1 b 202 -1 385 252 429 314 b 434 321 425 367 406 343 b 332 256 174 55 104 55 b 85 55 66 61 70 107 b 78 209 167 412 202 412 b 271 412 291 356 305 369 z"},"!":{"x_min":0,"x_max":513,"ha":513,"o":"m 217 784 b 196 536 75 348 75 276 b 75 224 103 202 128 202 b 144 202 161 209 161 228 b 161 298 355 665 359 707 b 362 748 222 832 217 784 z m 100 122 b 59 122 3 69 0 28 b -3 0 34 -23 68 -23 b 113 -23 147 36 150 70 b 153 103 131 122 100 122 z"},"/":{"x_min":0,"x_max":548,"ha":548,"o":"m 54 43 b 43 8 105 -58 115 -31 b 137 25 615 730 615 763 b 615 814 539 861 539 819 b 539 741 64 73 54 43 z"},"[":{"x_min":0,"x_max":590,"ha":590,"o":"m 678 915 b 676 915 496 912 459 913 b 423 914 403 914 401 914 b 400 914 400 914 400 914 b 391 913 384 908 384 896 b 384 895 384 894 384 893 b 383 888 382 884 382 878 b 350 732 9 11 -2 -23 b -8 -37 -16 -66 -16 -91 b -16 -103 -12 -110 -3 -110 b 6 -110 1 -110 20 -109 b 39 -108 53 -108 62 -108 l 244 -108 b 257 -108 268 -100 278 -85 b 288 -70 292 -55 292 -41 b 292 -28 289 -22 282 -22 b 280 -22 130 -25 106 -25 b 201 190 474 796 474 829 l 641 829 b 654 829 665 837 674 852 b 684 867 689 882 689 896 b 689 909 685 915 678 915 z"},"6":{"x_min":0,"x_max":619,"ha":619,"o":"m 589 694 b 589 764 520 827 416 827 b 69 827 -256 -23 191 -23 b 394 -23 547 201 516 399 b 503 481 406 561 305 561 b 266 561 229 551 195 535 b 259 653 349 766 428 766 b 454 766 492 749 492 711 b 492 679 485 682 485 670 b 485 649 589 651 589 694 z m 322 519 b 356 519 392 492 401 432 b 418 328 314 36 168 36 b 116 36 96 76 86 143 b 71 234 177 353 172 381 b 172 384 169 390 164 397 b 206 463 263 519 322 519 z"},"r":{"x_min":0,"x_max":371,"ha":371,"o":"m 376 339 b 311 244 189 29 146 29 b 137 29 136 39 141 57 l 141 57 b 167 134 226 282 229 314 b 235 385 159 404 107 445 b 139 505 167 571 172 629 b 178 701 155 728 126 728 b 72 728 -46 651 -55 547 b -63 462 -15 421 31 389 b 15 366 3 346 -7 333 b -16 321 5 288 14 300 b 25 315 44 340 63 369 b 89 351 105 334 103 310 b 100 269 8 127 2 56 b -4 -15 100 -27 120 -27 b 123 -27 125 -26 126 -26 b 219 -15 357 241 396 303 b 402 312 398 371 376 339 z m 60 551 b 64 601 98 685 122 685 b 137 685 144 673 140 631 b 136 583 111 524 82 471 b 66 491 57 516 60 551 z"},"2":{"x_min":0,"x_max":647,"ha":647,"o":"m 486 87 b 397 62 258 66 147 71 b 279 202 609 499 609 669 b 609 767 543 828 418 828 b 145 828 54 595 54 555 b 54 415 167 385 167 418 b 167 434 147 433 147 487 b 147 591 244 775 409 775 b 454 775 493 730 493 688 b 493 465 8 96 -32 66 b -60 49 -63 18 -58 2 b -55 -10 -44 -7 -32 -3 b 2 11 435 -20 461 -12 b 486 -5 516 96 486 87 z"},"{":{"x_min":0,"x_max":507,"ha":507,"o":"m 443 865 b 350 865 239 566 213 511 b 187 463 143 464 143 441 b 143 413 161 412 161 396 b 161 335 8 81 8 21 b 8 -19 51 -56 89 -56 b 128 -56 95 -36 95 2 b 95 39 235 296 235 328 b 235 361 219 388 219 402 b 219 440 283 417 310 473 b 337 529 430 819 473 819 b 509 819 490 865 443 865 z"},"9":{"x_min":0,"x_max":633,"ha":633,"o":"m -17 110 b -17 40 52 -23 156 -23 b 503 -23 828 827 381 827 b 178 827 25 603 56 405 b 69 323 166 243 267 243 b 306 243 343 253 377 269 b 313 151 223 38 144 38 b 118 38 80 54 80 93 b 80 125 87 122 87 134 b 87 155 -17 153 -17 110 z m 250 285 b 216 285 180 312 171 372 b 154 476 258 768 404 768 b 456 768 476 728 486 661 b 501 570 395 451 400 423 b 400 420 403 414 408 407 b 366 341 309 285 250 285 z"}," ":{"x_min":0,"x_max":261,"ha":261,"o":""},"I":{"x_min":0,"x_max":649,"ha":649,"o":"m 501 747 b 501 550 261 122 261 49 b 261 -18 389 -43 389 -8 b 389 64 633 576 633 706 b 633 807 566 858 438 858 b 159 858 -90 607 -90 494 b -90 351 25 292 25 327 b 25 343 5 342 5 397 b 5 586 270 815 439 815 b 485 815 501 774 501 747 z"},"H":{"x_min":0,"x_max":623,"ha":623,"o":"m 560 437 b 614 578 663 703 665 722 b 668 764 524 850 520 801 b 511 701 474 579 433 463 b 385 461 326 452 266 442 b 316 570 358 684 358 721 b 358 822 291 874 163 874 b -117 874 -367 621 -367 509 b -367 365 -251 306 -251 341 b -251 357 -271 356 -271 411 b -271 600 -5 830 164 830 b 210 830 226 790 226 762 b 226 676 180 545 128 419 b 89 413 53 409 24 409 b -82 409 -85 447 -85 403 b -85 387 -65 323 14 323 b 33 323 60 325 90 329 b 36 203 -14 96 -14 62 b -14 -5 114 -30 114 5 b 114 50 171 198 230 348 b 289 356 348 363 396 364 b 344 228 295 115 295 79 b 295 12 423 -13 423 22 b 423 62 468 191 519 328 b 524 321 526 316 531 316 b 546 316 582 350 582 388 b 582 405 577 423 560 437 z"},"4":{"x_min":0,"x_max":566,"ha":566,"o":"m 482 354 b 452 345 415 339 376 335 b 448 530 531 741 532 752 b 535 784 486 822 454 828 b 444 831 436 831 432 824 b 428 821 426 816 426 808 b 426 805 425 802 425 798 b 383 701 25 383 -45 306 b -49 302 -53 298 -55 293 b -56 292 -57 291 -57 290 b -57 290 -57 290 -57 290 b -65 275 -65 259 -62 249 b -59 237 -47 239 -36 244 b -18 251 108 252 229 252 b 180 143 140 61 139 49 b 136 16 225 -31 244 -31 b 264 -31 268 0 270 18 b 272 44 304 139 345 252 b 405 252 450 252 457 254 b 483 262 512 362 482 354 z m 75 325 b 144 398 282 527 383 626 b 352 532 306 425 263 328 b 196 325 129 326 75 325 z"},"~":{"x_min":0,"x_max":483,"ha":483,"o":"m 125 593 b 139 593 151 622 182 622 b 214 622 245 584 287 584 b 370 584 401 698 350 698 b 333 698 318 669 290 669 b 262 669 234 706 183 706 b 111 706 85 593 125 593 z"},"D":{"x_min":0,"x_max":697,"ha":697,"o":"m 403 834 b 400 834 397 834 393 834 b 362 870 297 895 297 854 b 297 844 296 833 295 822 b 52 770 -144 558 -144 456 b -144 308 -24 247 -24 283 b -24 299 -45 298 -45 356 b -45 500 121 666 278 742 b 215 511 19 123 -4 57 b -6 57 -9 56 -11 56 b -51 56 -55 73 -88 73 b -110 73 -71 -2 35 -3 b 62 -22 94 -36 105 -36 b 121 -36 128 -16 130 2 b 780 69 852 834 403 834 z m 174 96 b 223 239 407 708 433 784 b 442 785 425 784 433 784 b 764 784 560 229 174 96 z"},"^":{"x_min":0,"x_max":525,"ha":525,"o":"m 132 562 b 157 562 226 619 241 619 b 256 619 287 540 327 540 b 368 540 291 704 264 704 b 237 704 113 606 113 583 b 113 583 108 562 132 562 z"},"0":{"x_min":0,"x_max":649,"ha":649,"o":"m 405 839 b 308 839 214 756 146 656 b 85 621 0 496 0 291 b 0 156 45 -10 196 -10 b 402 -10 594 316 594 603 b 594 723 508 839 405 839 z m 182 76 b 129 76 115 133 115 231 b 115 363 241 537 241 577 b 241 582 239 591 235 600 b 289 697 356 779 416 779 b 451 779 483 738 483 652 b 483 501 331 76 182 76 z"},"F":{"x_min":0,"x_max":589,"ha":589,"o":"m 448 445 l 448 445 b 489 549 522 643 522 689 b 522 771 452 857 325 857 b 47 857 -201 606 -201 494 b -201 351 -86 292 -86 327 b -86 342 -106 342 -106 397 b -106 585 196 815 364 815 b 407 815 409 762 409 734 b 409 662 367 544 315 428 b 226 412 134 394 73 394 b -32 394 -35 432 -35 389 b -35 372 -16 309 63 309 b 108 309 189 322 272 333 b 206 194 141 73 139 57 b 136 23 226 -24 246 -24 b 266 -24 270 7 272 26 b 275 65 350 204 409 348 l 409 348 b 524 348 506 300 521 300 b 535 300 571 333 571 371 b 571 408 563 445 448 445 z"},"`":{"x_min":0,"x_max":459,"ha":459,"o":"m 273 568 b 320 568 332 614 312 614 b 273 614 173 720 159 720 b 137 720 106 684 106 659 b 106 631 226 568 273 568 z"},"k":{"x_min":0,"x_max":493,"ha":493,"o":"m 494 340 b 428 245 325 89 260 89 b 227 89 188 160 163 247 b 408 285 488 541 384 541 b 312 541 228 480 167 415 b 221 566 271 708 273 727 b 276 768 137 852 132 804 b 111 558 -85 149 -91 78 b -100 -20 17 -4 31 9 b 43 20 33 17 35 37 b 36 47 58 112 89 199 b 117 97 160 -1 222 -1 b 313 -1 473 240 513 304 b 519 313 515 372 494 340 z m 393 459 b 388 394 282 306 162 278 b 235 382 396 490 393 459 z"},"u":{"x_min":0,"x_max":555,"ha":555,"o":"m 559 341 b 493 246 363 53 320 53 b 311 53 310 61 313 75 b 347 172 440 404 443 438 b 447 478 339 544 335 496 b 332 462 305 396 275 325 b 207 204 84 60 29 60 b -3 60 161 385 164 426 b 168 466 60 532 55 484 b 48 404 -80 184 -87 113 b -93 42 -17 0 15 0 b 77 0 145 67 197 134 b 191 115 186 100 186 89 b 180 22 271 -14 294 -6 b 386 10 539 243 578 304 b 585 314 580 372 559 341 z"},"]":{"x_min":0,"x_max":590,"ha":590,"o":"m -154 -110 b -152 -110 28 -107 65 -108 b 101 -109 121 -109 123 -109 b 124 -109 124 -109 124 -109 b 133 -109 140 -104 140 -91 b 140 -91 140 -89 140 -89 b 141 -84 142 -79 142 -74 b 173 72 515 793 526 828 b 532 841 540 870 540 895 b 540 908 536 915 527 915 b 518 915 523 915 504 914 b 485 913 470 913 462 913 l 280 913 b 267 913 256 905 246 889 b 236 874 231 859 231 846 b 231 833 235 827 242 827 b 244 827 394 830 418 829 b 323 614 50 9 50 -24 l -117 -24 b -130 -24 -141 -32 -150 -48 b -160 -63 -165 -78 -165 -92 b -165 -104 -161 -110 -154 -110 z"},"U":{"x_min":0,"x_max":833,"ha":833,"o":"m 689 788 b 686 746 677 701 665 653 b 616 565 335 68 273 68 b 245 68 252 97 252 97 b 252 170 454 588 454 709 b 454 809 388 860 261 860 b -15 860 -261 611 -261 500 b -261 358 -147 300 -147 334 b -147 350 -167 349 -167 404 b -167 590 95 817 262 817 b 308 817 324 777 324 750 b 324 555 120 223 120 151 b 120 71 194 -5 286 -5 b 348 -5 481 207 563 348 b 513 218 480 145 480 110 b 480 44 608 -11 608 23 b 608 115 832 651 832 711 b 832 752 694 837 689 788 z"},"o":{"x_min":0,"x_max":480,"ha":480,"o":"m 484 344 b 431 267 344 176 266 149 b 306 215 333 287 337 337 b 344 410 297 512 209 512 b 129 512 30 422 7 320 b -32 269 -76 194 -80 149 b -85 89 -30 -9 65 -9 b 122 -9 179 33 225 90 b 357 107 456 249 501 310 b 508 318 504 373 484 344 z m 205 471 b 240 471 244 440 238 361 b 233 314 200 223 156 153 b 131 161 109 173 90 188 b 126 240 164 292 166 310 b 169 346 99 372 70 375 b 104 430 161 471 205 471 z m 43 56 b 12 56 30 96 60 145 b 78 128 98 115 121 105 b 96 76 69 56 43 56 z"},"N":{"x_min":0,"x_max":719,"ha":719,"o":"m 793 779 b 793 836 699 909 699 862 b 699 756 560 457 487 309 b 478 505 511 738 507 769 b 503 798 424 858 380 873 b 379 874 377 874 375 875 b 360 879 351 877 353 864 b 353 861 353 859 353 856 b 291 733 63 76 -168 76 b -194 76 -218 94 -216 75 b -213 56 -176 13 -85 13 b 98 13 289 481 364 696 b 369 451 337 155 345 97 b 356 16 427 0 453 0 b 491 0 516 19 509 31 b 507 148 793 678 793 779 z"},"+":{"x_min":0,"x_max":541,"ha":541,"o":"m 422 387 b 383 381 344 377 307 376 b 325 420 338 456 338 467 b 338 496 267 541 267 511 b 267 481 246 429 223 374 b 160 375 110 376 89 368 b 53 354 50 321 55 304 b 58 294 69 296 80 300 b 92 305 137 304 190 302 b 168 254 150 212 150 196 b 150 154 168 133 190 133 b 196 133 237 215 274 298 b 335 296 389 293 399 296 b 423 303 451 392 422 387 z"},"G":{"x_min":0,"x_max":679,"ha":679,"o":"m 557 366 b 479 366 445 337 372 337 b 300 337 283 368 283 338 b 283 327 295 262 365 262 b 407 262 439 273 486 278 b 447 198 347 59 258 59 b -20 59 298 776 483 776 b 532 776 423 618 423 528 b 423 440 502 418 502 442 b 502 496 562 697 562 734 b 562 817 533 859 461 859 b 156 859 -301 -7 259 -7 b 407 -7 527 198 537 280 b 567 279 564 257 584 257 b 594 257 619 279 619 305 b 619 331 604 366 557 366 z"},"q":{"x_min":0,"x_max":558,"ha":558,"o":"m 237 -123 b 295 -5 543 244 581 304 b 587 313 583 372 561 340 b 500 251 331 88 294 39 b 359 216 428 394 429 416 b 433 456 325 522 321 474 b 320 468 313 444 301 411 b 271 448 217 500 145 500 b 67 500 -79 201 -86 125 b -92 50 4 0 58 0 b 86 0 149 74 202 144 b 133 -41 59 -241 55 -279 b 47 -378 163 -384 177 -371 b 189 -360 179 -351 182 -321 b 185 -286 207 -212 237 -123 z m 281 358 b 281 358 104 61 60 61 b 16 61 167 399 224 399 b 251 399 274 390 290 381 b 287 373 284 365 281 357 l 281 358 z"},"d":{"x_min":0,"x_max":559,"ha":559,"o":"m 561 340 b 495 245 358 55 316 55 b 306 55 305 65 310 82 l 310 82 b 358 228 529 692 532 727 b 536 768 396 852 392 804 b 382 693 338 551 292 421 b 261 457 210 500 145 500 b 66 500 -80 201 -86 125 b -93 50 4 0 57 0 b 81 0 132 55 180 116 b 175 101 172 89 171 81 b 165 10 269 -1 289 -1 b 292 -1 294 -1 296 -1 b 387 10 541 242 581 304 b 587 313 582 372 561 340 z m 59 61 b 15 61 167 399 223 399 b 245 399 264 394 279 387 b 269 360 260 333 250 308 b 198 224 92 61 59 61 z"},"1":{"x_min":0,"x_max":410,"ha":410,"o":"m 307 817 b 301 813 294 801 287 776 b 239 610 5 521 5 496 b 5 482 18 470 43 470 b 101 470 184 508 235 547 b 151 328 21 71 19 49 b 16 16 105 -31 124 -31 b 144 -31 148 0 150 18 b 156 94 410 734 412 752 b 416 798 318 854 307 817 z"},"5":{"x_min":0,"x_max":595,"ha":595,"o":"m 648 837 b 521 800 363 815 288 811 b 258 832 222 838 222 808 b 222 796 220 781 216 766 b 216 765 216 763 215 762 b 187 652 80 497 78 469 b 75 436 160 389 179 389 b 182 389 184 390 186 391 b 223 399 262 415 300 415 b 456 415 396 105 161 105 b 82 106 7 130 7 189 b 7 244 37 253 37 269 b 37 303 -60 256 -60 150 b -60 73 38 -14 170 -14 b 483 -14 661 475 252 475 b 241 475 227 475 212 473 b 235 553 304 691 323 737 b 431 738 604 732 623 737 b 649 745 678 845 648 837 z"}}}
